# xmcd
#
# Track frame offsets:
#	150
#	26303
#	48763
#	62665
#	80733
#	118493
#	140309
#	164072
#	180674
#	201846
#	226349
#	247433
#	272190
#
# Disc length: 3916 seconds
# Revision: 1
# Processed by: cddbd v1.5.2PL0 Copyright (c) Steve Scherf et al.
# Submitted via: dBpowerAMP V12.0
#
DISCID=c10f4a0d
DTITLE=John Nemeth - Blues Live
DYEAR=2012
DGENRE=Blues
TTITLE0=Every Night 'bout This Time
TTITLE1=Country Boy
TTITLE2=Ain't Too Old
TTITLE3=She Belongs To Me
TTITLE4=Blues In My Heart
TTITLE5=Just Like You
TTITLE6=She Did Not Show
TTITLE7=You Know
TTITLE8=Daughter Of The Devil
TTITLE9=Love Gone Crazy
TTITLE10=You're An Angel
TTITLE11=Stop Breaking Down
TTITLE12=Mother In Law
EXTD=
EXTT0=
EXTT1=
EXTT2=
EXTT3=
EXTT4=
EXTT5=
EXTT6=
EXTT7=
EXTT8=
EXTT9=
EXTT10=
EXTT11=
EXTT12=
PLAYORDER=
